<svg xmlns="http://www.w3.org/2000/svg" version="1.1" xmlns:xlink="http://www.w3.org/1999/xlink" xmlns:svgjs="http://svgjs.dev/svgjs" width="1000" height="1000" viewBox="0 0 1000 1000"><rect width="1000" height="1000" fill="#000000"></rect><g transform="matrix(0.7,0,0,0.7,149.57576049071798,434.86823675840776)"><svg viewBox="0 0 396 74" data-background-color="#ffffff" preserveAspectRatio="xMidYMid meet" height="186" width="1000" xmlns="http://www.w3.org/2000/svg" xmlns:xlink="http://www.w3.org/1999/xlink"><g id="tight-bounds" transform="matrix(1,0,0,1,0.23999835096526567,0.018052919929886002)"><svg viewBox="0 0 395.52 73.96389423922658" height="73.96389423922658" width="395.52"><g><svg viewBox="0 0 484.324298888865 90.57066955022141" height="73.96389423922658" width="395.52"><g><rect width="5.910098732973909" height="78.64312840829645" x="410.99146265176415" y="5.963770570962481" fill="#ffffff" opacity="1" stroke-width="0" stroke="transparent" fill-opacity="1" class="rect-o-0" data-fill-palette-color="primary" rx="1%" id="o-0" data-palette-color="#1d486d"></rect></g><g transform="matrix(1,0,0,1,0,12.517364604987186)"><svg viewBox="0 0 395.52 65.53594034024704" height="65.53594034024704" width="395.52"><g><svg viewBox="0 0 395.52 65.53594034024704" height="65.53594034024704" width="395.52"><g><svg viewBox="0 0 395.52 65.53594034024704" height="65.53594034024704" width="395.52"><g transform="matrix(1,0,0,1,0,0)"><svg width="395.52" viewBox="3.75 -35.20000076293945 214.5399932861328 35.54999923706055" height="65.53594034024704" data-palette-color="#1d486d"><path d="M3.75-34.75L24.2-34.75 24.2-30.1 9.45-30.1 9.45-19.85 20.95-19.85 20.95-15.2 9.45-15.2 9.45 0 3.75 0 3.75-34.75ZM45.35 0.35Q40.5 0.35 36.42-1.93 32.35-4.2 29.97-8.28 27.6-12.35 27.6-17.45L27.6-17.45Q27.6-22.55 29.97-26.6 32.35-30.65 36.42-32.93 40.5-35.2 45.35-35.2L45.35-35.2Q50.25-35.2 54.32-32.93 58.4-30.65 60.75-26.6 63.1-22.55 63.1-17.45L63.1-17.45Q63.1-12.35 60.75-8.28 58.4-4.2 54.32-1.93 50.25 0.35 45.35 0.35L45.35 0.35ZM45.35-4.6Q48.8-4.6 51.5-6.18 54.2-7.75 55.72-10.68 57.25-13.6 57.25-17.45L57.25-17.45Q57.25-21.3 55.72-24.2 54.2-27.1 51.5-28.65 48.8-30.2 45.35-30.2L45.35-30.2Q41.9-30.2 39.2-28.65 36.5-27.1 34.97-24.2 33.45-21.3 33.45-17.45L33.45-17.45Q33.45-13.6 34.97-10.68 36.5-7.75 39.2-6.18 41.9-4.6 45.35-4.6L45.35-4.6ZM84.55 0.35Q79.7 0.35 75.62-1.93 71.55-4.2 69.17-8.28 66.8-12.35 66.8-17.45L66.8-17.45Q66.8-22.55 69.17-26.6 71.55-30.65 75.62-32.93 79.7-35.2 84.55-35.2L84.55-35.2Q89.45-35.2 93.52-32.93 97.59-30.65 99.95-26.6 102.3-22.55 102.3-17.45L102.3-17.45Q102.3-12.35 99.95-8.28 97.59-4.2 93.52-1.93 89.45 0.35 84.55 0.35L84.55 0.35ZM84.55-4.6Q88-4.6 90.7-6.18 93.4-7.75 94.92-10.68 96.45-13.6 96.45-17.45L96.45-17.45Q96.45-21.3 94.92-24.2 93.4-27.1 90.7-28.65 88-30.2 84.55-30.2L84.55-30.2Q81.1-30.2 78.4-28.65 75.7-27.1 74.17-24.2 72.65-21.3 72.65-17.45L72.65-17.45Q72.65-13.6 74.17-10.68 75.7-7.75 78.4-6.18 81.1-4.6 84.55-4.6L84.55-4.6ZM119.24-34.75Q124.79-34.75 128.97-32.63 133.14-30.5 135.42-26.53 137.69-22.55 137.69-17.25L137.69-17.25Q137.69-11.95 135.42-8.05 133.14-4.15 128.97-2.08 124.79 0 119.24 0L119.24 0 107.89 0 107.89-34.75 119.24-34.75ZM119.24-4.65Q125.34-4.65 128.59-7.95 131.84-11.25 131.84-17.25L131.84-17.25Q131.84-23.3 128.59-26.7 125.34-30.1 119.24-30.1L119.24-30.1 113.59-30.1 113.59-4.65 119.24-4.65ZM167.64-24.4Q167.64-21.75 166.39-19.4 165.14-17.05 162.39-15.58 159.64-14.1 155.34-14.1L155.34-14.1 149.04-14.1 149.04 0 143.34 0 143.34-34.75 155.34-34.75Q159.34-34.75 162.12-33.38 164.89-32 166.27-29.65 167.64-27.3 167.64-24.4L167.64-24.4ZM155.34-18.75Q158.59-18.75 160.19-20.23 161.79-21.7 161.79-24.4L161.79-24.4Q161.79-30.1 155.34-30.1L155.34-30.1 149.04-30.1 149.04-18.75 155.34-18.75ZM173.09-34.75L178.79-34.75 178.79 0 173.09 0 173.09-34.75ZM184.39-17.45Q184.39-22.55 186.76-26.6 189.14-30.65 193.21-32.93 197.29-35.2 202.14-35.2L202.14-35.2Q207.69-35.2 212.01-32.48 216.34-29.75 218.29-24.75L218.29-24.75 211.44-24.75Q210.09-27.5 207.69-28.85 205.29-30.2 202.14-30.2L202.14-30.2Q198.69-30.2 195.99-28.65 193.29-27.1 191.76-24.2 190.24-21.3 190.24-17.45L190.24-17.45Q190.24-13.6 191.76-10.7 193.29-7.8 195.99-6.23 198.69-4.65 202.14-4.65L202.14-4.65Q205.29-4.65 207.69-6 210.09-7.35 211.44-10.1L211.44-10.1 218.29-10.1Q216.34-5.1 212.01-2.4 207.69 0.3 202.14 0.3L202.14 0.3Q197.24 0.3 193.19-1.98 189.14-4.25 186.76-8.3 184.39-12.35 184.39-17.45L184.39-17.45Z" opacity="1" transform="matrix(1,0,0,1,0,0)" fill="#ffffff" class="undefined-text-0" data-fill-palette-color="primary" id="text-0"></path></svg></g></svg></g></svg></g></svg></g><g transform="matrix(1,0,0,1,432.3730240365022,0)"><svg viewBox="0 0 51.951274852362744 90.57066955022141" height="90.57066955022141" width="51.951274852362744"><g><svg xmlns="http://www.w3.org/2000/svg" xmlns:xlink="http://www.w3.org/1999/xlink" version="1.1" x="0" y="0" viewBox="20.954999923706055 3.0810000896453857 48.089996337890625 83.83900451660156" enable-background="new 0 0 90 90" xml:space="preserve" height="90.57066955022141" width="51.951274852362744" class="icon-icon-0" data-fill-palette-color="accent" id="icon-0"><g fill="#1d486d" data-fill-palette-color="accent"><path d="M61.421 3.081H28.577c-4.21 0-7.622 3.412-7.622 7.623v68.593c0 4.209 3.412 7.623 7.622 7.623h32.844c4.21 0 7.624-3.414 7.624-7.623V10.704C69.045 6.493 65.631 3.081 61.421 3.081zM44.998 83.506c-1.85 0-3.354-1.5-3.354-3.352s1.504-3.354 3.354-3.354c1.854 0 3.354 1.502 3.354 3.354S46.853 83.506 44.998 83.506zM62.832 69.836c0 1.541-1.249 2.789-2.791 2.789H29.958c-1.541 0-2.79-1.248-2.79-2.789v-57.35c0-1.542 1.249-2.791 2.79-2.791h30.083c1.542 0 2.791 1.249 2.791 2.791V69.836z" fill="#ffffff" data-fill-palette-color="accent"></path></g></svg></g></svg></g></svg></g><defs></defs></svg><rect width="395.52" height="73.96389423922658" fill="none" stroke="none" visibility="hidden"></rect></g></svg></g></svg>