<?xml version="1.0" standalone="no"?>
<svg xmlns:xlink="http://www.w3.org/1999/xlink" id="wave" style="transform:rotate(180deg); transition: 0.3s" viewBox="0 0 1440 490" version="1.1" xmlns="http://www.w3.org/2000/svg"><defs><linearGradient id="sw-gradient-0" x1="0" x2="0" y1="1" y2="0"><stop stop-color="rgba(64, 123, 255, 1)" offset="0%"/><stop stop-color="rgba(83, 127, 231, 1)" offset="100%"/></linearGradient></defs><path style="transform:translate(0, 0px); opacity:1" fill="url(#sw-gradient-0)" d="M0,98L48,98C96,98,192,98,288,106.2C384,114,480,131,576,130.7C672,131,768,114,864,98C960,82,1056,65,1152,98C1248,131,1344,212,1440,212.3C1536,212,1632,131,1728,130.7C1824,131,1920,212,2016,228.7C2112,245,2208,196,2304,171.5C2400,147,2496,147,2592,122.5C2688,98,2784,49,2880,65.3C2976,82,3072,163,3168,212.3C3264,261,3360,278,3456,245C3552,212,3648,131,3744,98C3840,65,3936,82,4032,89.8C4128,98,4224,98,4320,130.7C4416,163,4512,229,4608,220.5C4704,212,4800,131,4896,138.8C4992,147,5088,245,5184,277.7C5280,310,5376,278,5472,277.7C5568,278,5664,310,5760,318.5C5856,327,5952,310,6048,294C6144,278,6240,261,6336,269.5C6432,278,6528,310,6624,343C6720,376,6816,408,6864,424.7L6912,441L6912,490L6864,490C6816,490,6720,490,6624,490C6528,490,6432,490,6336,490C6240,490,6144,490,6048,490C5952,490,5856,490,5760,490C5664,490,5568,490,5472,490C5376,490,5280,490,5184,490C5088,490,4992,490,4896,490C4800,490,4704,490,4608,490C4512,490,4416,490,4320,490C4224,490,4128,490,4032,490C3936,490,3840,490,3744,490C3648,490,3552,490,3456,490C3360,490,3264,490,3168,490C3072,490,2976,490,2880,490C2784,490,2688,490,2592,490C2496,490,2400,490,2304,490C2208,490,2112,490,2016,490C1920,490,1824,490,1728,490C1632,490,1536,490,1440,490C1344,490,1248,490,1152,490C1056,490,960,490,864,490C768,490,672,490,576,490C480,490,384,490,288,490C192,490,96,490,48,490L0,490Z"/><defs><linearGradient id="sw-gradient-1" x1="0" x2="0" y1="1" y2="0"><stop stop-color="rgba(64, 123, 255, 1)" offset="0%"/><stop stop-color="rgba(83, 127, 231, 1)" offset="100%"/></linearGradient></defs><path style="transform:translate(0, 50px); opacity:0.9" fill="url(#sw-gradient-1)" d="M0,343L48,302.2C96,261,192,180,288,196C384,212,480,327,576,359.3C672,392,768,343,864,302.2C960,261,1056,229,1152,245C1248,261,1344,327,1440,326.7C1536,327,1632,261,1728,204.2C1824,147,1920,98,2016,98C2112,98,2208,147,2304,155.2C2400,163,2496,131,2592,138.8C2688,147,2784,196,2880,253.2C2976,310,3072,376,3168,359.3C3264,343,3360,245,3456,179.7C3552,114,3648,82,3744,98C3840,114,3936,180,4032,196C4128,212,4224,180,4320,204.2C4416,229,4512,310,4608,359.3C4704,408,4800,425,4896,392C4992,359,5088,278,5184,277.7C5280,278,5376,359,5472,343C5568,327,5664,212,5760,171.5C5856,131,5952,163,6048,179.7C6144,196,6240,196,6336,212.3C6432,229,6528,261,6624,261.3C6720,261,6816,229,6864,212.3L6912,196L6912,490L6864,490C6816,490,6720,490,6624,490C6528,490,6432,490,6336,490C6240,490,6144,490,6048,490C5952,490,5856,490,5760,490C5664,490,5568,490,5472,490C5376,490,5280,490,5184,490C5088,490,4992,490,4896,490C4800,490,4704,490,4608,490C4512,490,4416,490,4320,490C4224,490,4128,490,4032,490C3936,490,3840,490,3744,490C3648,490,3552,490,3456,490C3360,490,3264,490,3168,490C3072,490,2976,490,2880,490C2784,490,2688,490,2592,490C2496,490,2400,490,2304,490C2208,490,2112,490,2016,490C1920,490,1824,490,1728,490C1632,490,1536,490,1440,490C1344,490,1248,490,1152,490C1056,490,960,490,864,490C768,490,672,490,576,490C480,490,384,490,288,490C192,490,96,490,48,490L0,490Z"/></svg>